<svg width="24" height="24" viewBox="0 0 24 24" fill="none" xmlns="http://www.w3.org/2000/svg">
<g clip-path="url(#clip0_2197_477)">
<path d="M12 0C5.38294 0 0 5.38294 0 12C0 18.6171 5.38294 24 12 24C18.6171 24 24 18.6171 24 12C24 5.38294 18.6171 0 12 0ZM17.25 12.9999H12.9999V17.25C12.9999 17.802 12.552 18.2499 12 18.2499C11.448 18.2499 11.0001 17.802 11.0001 17.25V12.9999H6.75C6.19795 12.9999 5.75006 12.552 5.75006 12C5.75006 11.448 6.19795 11.0001 6.75 11.0001H11.0001V6.75C11.0001 6.19795 11.448 5.75006 12 5.75006C12.552 5.75006 12.9999 6.19795 12.9999 6.75V11.0001H17.25C17.802 11.0001 18.2499 11.448 18.2499 12C18.2499 12.552 17.802 12.9999 17.25 12.9999Z" fill="url(#paint0_linear_2197_477)"/>
</g>
<defs>
<linearGradient id="paint0_linear_2197_477" x1="12" y1="0" x2="12" y2="24" gradientUnits="userSpaceOnUse">
<stop stop-color="#50B0FD"/>
<stop offset="1" stop-color="#3396DB"/>
</linearGradient>
<clipPath id="clip0_2197_477">
<rect width="24" height="24" fill="white"/>
</clipPath>
</defs>
</svg>
