<svg width="517" height="477" viewBox="0 0 517 477" fill="none" xmlns="http://www.w3.org/2000/svg">
<path d="M510.185 17.2053C510.135 17.1685 510.039 17.1662 509.886 17.2115C508.659 17.5741 506.045 17.0115 506.045 17.0115L501.858 19.0261L500.931 18.5219L497.102 17.9845L494.238 18.8307L491.904 19.9642L490.342 22.2048L488.955 21.2796L488.307 22.4722L490.14 24.1555L486.684 24.509L484.591 26.4615L486.616 28.4204L490.183 30.7047L493.724 31.7715L492.859 33.3615L488.741 33.3552L485.979 34.1709L484.379 30.6385L480.828 29.9098L479.861 26.6349L477.43 26.6869L473.793 26.4252L470.038 27.6463L464.813 26.5205L460.555 28.6671L456.521 28.1915L452.327 29.4291L448.234 30.6378L444.486 30.7439L439.573 30.3051L436.402 31.2419L429.447 33.2961L423.278 35.0073L420.129 38.2727L416.074 40.3607L413.981 42.3133L413.552 44.9972L411.698 43.9887L408.928 44.0274L407.15 46.6664L404.116 46.5615L402.083 48.7194L401.291 50.1759L403.942 51.6177L403.727 53.9057L407.328 55.1763L410.752 59.6142L412.065 60.6729L411.707 63.2249L409.89 64.9852L406.882 64.2057L403.244 63.9455L400.692 63.5875L397.644 61.9295L396.738 58.8608L399.706 57.9842L398.556 54.0971L396.408 54.7316L393.511 56.5883L393.923 60.2474L392.529 61.5493L393.133 63.5943L390.608 66.3419L385.998 66.9253L384.556 69.5758L381.896 70.3603L379.909 69.2791L377.49 70.8834L375.112 75.256L371.226 76.4038L370.216 78.2593L370.791 80.2036L368.207 78.7981L364.777 79.4215L360.67 79.077L358.979 73.348L358.164 70.5862L354.411 68.8025L349.678 67.087L345.503 68.7658L341.207 70.0347L335.228 73.1351L333.138 76.9782L328.685 78.8484L324.798 79.9978L321.944 78.6161L320.147 75.92L315.488 75.9614C315.488 75.9614 314.409 79.8395 314.227 79.2257C314.046 78.612 313.152 75.206 313.152 75.206L310.143 76.3177L307.228 74.7322C307.228 74.7322 305.765 73.1626 307.095 72.7699C308.424 72.3773 310.38 71.4661 310.38 71.4661L308.931 68.4467L304.019 68.0063L300.516 67.8187L297.521 70.4821L295.981 72.0487L294.47 76.7202L293.1 79.2388L289.696 80.1335L293.168 75.3258L291.083 73.1616L288.015 74.068L285.185 73.9029L288.059 70.8304C288.059 70.8304 291.082 71.2711 291.514 70.4761C291.947 69.6811 291.705 68.8635 291.705 68.8635L286.925 68.495L281.014 67.684L278.296 70.1536L273.577 69.9912L271.059 68.6212L268.4 69.4064L270.245 72.6436L269.634 74.7138L265.277 75.779L263.764 78.5615L264.778 80.4854L267.976 77.7619L268.47 79.0612L266.885 81.9757L268.489 84.3938L269.396 87.4625L270.034 88.4978L266.965 89.4042L264.521 87.9014L262.198 88.6983L260.459 89.2132L262.815 92.2981L261.734 94.2856L259.252 91.9051L256.663 90.6679L252.785 89.5886L249.055 92.0248L247.845 95.8295L244.533 94.0278L241.184 93.2366L240.339 90.3741L237.241 88.174L235.944 90.5591L236.731 93.2187L235.721 95.0742L235.435 97.4942L234.381 102.587L232.747 104.96L230.565 101.713L228.724 102.256L226.229 100.213L224.963 97.806L223.785 93.8167L221.031 92.4054L222.184 90.2858C222.184 90.2858 222.001 87.7824 221.64 88.4446C221.28 89.1069 219.463 88.9768 219.463 88.9768L218.617 86.1119L220.254 85.6299L222.265 86.0355L223.85 83.121L223.247 81.0745L219.863 81.2944L221.233 78.7774L220.539 76.424L219.016 75.5954L221.84 72.9262L219.237 70.1358L217.805 70.5601L216.116 66.7216C216.116 66.7216 215.165 67.8365 214.171 67.2959C213.178 66.7553 211.977 69.2773 211.977 69.2773L210.485 69.4963L210.073 67.7269L208.868 67.4155L207.474 68.7175L206.148 66.1065L205.513 63.9584L203.171 64.3164L202.446 61.8615L201.184 63.2352L198.997 65.9937L199.327 70.1229L198.283 72.9882C198.283 72.9882 197.648 75.7334 196.986 75.3732C196.323 75.013 193.119 73.9581 193.119 73.9581L189.039 74.8295L185.681 74.3749L185.46 70.9929L184.27 72.2332L183.56 73.2211L179.453 70.9869L178.456 67.6114L179.889 67.1879L179.723 65.1232L175.099 64.1534L169.561 62.342L165.309 62.2631L161.526 63.3804L159.58 63.9578L160.499 66.6892L158.644 65.6798L158.278 62.5634L159.72 59.9128L159.086 57.7648L156.167 59.1833L154.773 60.4853L152.699 57.9829L150.735 56.2287L149.812 58.7429L150.412 60.1558L149.456 61.2839L148.023 61.7477L147.787 63.6094L147.999 66.0244L148.513 67.765L146.607 70.1812L146.473 72.6681L148.616 75.1215L147.859 76.5127L150.031 81.0426L150.801 83.651L149.018 86.9304L148.96 91.5351L151.046 92.6703L149.786 95.4616L148.692 94.867L147.145 96.4097L143.232 97.5653L140.235 97.8666L137.74 102.691L135.374 102.305L133.273 104.511L133.953 106.812L132.763 108.998L130.995 110.355L128.744 108.1L126.433 107.615L121.334 110.122L117.957 109.701L117.362 110.795L117.107 112.966L116.84 115.825L118.301 118.658L116.163 123.179L116.186 128.661L115.24 130.398L114.019 134.024L111.972 139.561L109.671 139.06L107.176 140.492L105.258 141.058L104.788 143.698L105.939 143.358L107.881 145.702L106.71 147.855L107.126 149.262L105.764 149.594L104.504 151.91L106.145 154.413L104.91 158.459L106.155 162.677L103.85 164.747L100.926 166.374L100.507 168.721L99.5616 170.459L98.2837 170.836L96.8427 173.485L97.8913 174.913L100.043 176.084L101.705 175.593L102.945 176.268L103.339 178.305L106.234 178.701L107.605 180.519L109.84 179.857L111.717 181.039L110.947 182.659L111.796 185.533L110.873 187.23L108.823 186.759L107.427 189.324L109.669 190.33L112.264 190.883L113.485 193.37L113.519 197.25L112.689 200.551L113.105 201.959L111.827 202.336L110.791 204.24L112.319 206.359L114.224 207.395L114.884 209.629L113.267 211.915L111.669 212.386L110.701 214.165L111.39 216.496L111.176 218.714L110.57 220.42L111.909 221.901L113.688 224.155L111.932 227.383L109.634 230.423L107.608 234.147L105.033 237.893L101.762 244.694L103.216 249.612L106.184 250.959L108.589 249.693L110.767 247.661L112.835 248.786L118.122 249.517L119.707 247.592L121.767 247.747L122.561 250.43L121.3 252.748L121.663 255.628L123.15 252.895L127.93 252.387L130.451 247.752L134.285 246.62L136.899 244.18L137.55 241.208L140.425 240.359L142.628 238.181L145.236 237.133L147.824 239.078L150.82 240.277L153.033 243.304L155.419 245.033L154.113 247.433L154.77 249.185L153.735 251.089L156.406 253.077L159.28 252.228L160.384 250.2L162.494 251.348L163.154 253.585L163.876 256.497L162.84 258.402L164.406 259.467L163.861 263.032L164.653 265.715L165.579 268.847L164.336 270.048L164.338 270.053L162.118 270.387L160.478 269.495L159.912 267.577L157.856 266.265L154.327 267.308L154.758 268.765L152.521 270.51L153.064 272.352L150.534 274.517L152.279 280.424L154.902 280.692L154.01 282.332L154.441 283.789L152.538 286.103L149.749 286.26L147.313 287.896L144.764 285.48L142.182 285.492L139.905 283.996L144.246 282.88L143.703 281.039L141.543 279.091L138.376 281.361L135.342 281.256L132.504 286.473L130.467 285.365L126.401 286.566L125.153 284.599L122.544 285.37L118.88 282.281L118.313 280.364L115.569 280.674L112.19 278.836L111.746 277.049L108.848 277.404L107.443 279.988L103.867 279.459L101.525 276.898L99.0512 276.711L97.5916 279.394L95.5047 278.259L89.6551 279.069L88.504 283.079L90.3119 284.964L91.7326 287.797L89.5845 288.432L87.5637 289.779L85.6661 296.345L83.2645 304.311L85.6599 306.773L80.3661 312.007L74.4355 321.015L65.6321 324.533L58.344 326.686L54.0685 330.284L48.1664 332.611L43.41 334.016L41.3017 337.891L39.1154 336.702L35.2151 336.77L35.8169 334.006L34.2269 333.141L32.0406 331.952L31.8474 328.756L32.8745 326.868L30.7876 325.733L29.719 322.962L29.048 320.408L24.2883 318.978L23.4273 316.063L22.2244 314.249L21.5446 311.948L18.8058 309.17L18.072 306.968L16.2363 304.424L17.6068 302.851L16.39 300.708L14.5488 301.252L13.0912 301.683L7.72096 303.269L5.34272 303.971L4.07234 306.307L1.8859 306.952L1.12811 309.47L1.71724 311.465L0.530373 314.039L2.88379 313.345L4.70624 317.256L9.87381 320.067L11.0529 324.055L15.369 325.117L18.681 326.918L21.4061 330.117L22.525 333.901L22.2471 338.988L23.1839 342.16L25.6723 345.316L30.2262 348.308L34.0448 349.182L37.9213 350.261L42.7282 348.841L46.506 350.896L53.0678 353.349L54.2762 355.552L58.552 358.737L63.5861 361.475L64.4323 364.34L64.4116 366.905L67.3404 370.043L71.6044 371.674L77.0359 374.629L81.5292 375.528L85.7683 377.834L88.3239 377.079L93.3385 375.599L98.6586 375.918L102.858 375.455L106.44 374.398L109.693 371.102L117.058 368.927L121.162 369.27L123.175 371.569L125.165 374.539L130.029 374.438L133.543 374.289L136.76 376.898L141.446 379.962L146.684 380.751L150.673 379.572L154.732 376.372L157.947 377.09L159.966 373.379L159.422 371.538L159.524 366.615L163.001 363.697L164.947 360.12L168.841 354.855L171.126 353.178L172.373 348.363L171.527 345.498L170.771 342.94L167.817 343.48L167.368 340.832L169.87 338.76L173.705 335.179L176.877 334.243L182.384 334.061L182.383 334.03L185.576 333.087L191.884 332.226L195.196 334.028L198.821 334.625L202.435 337.451L206.553 337.457L209.336 338.971L214.346 342.385L215.071 344.84L217.073 347.474L216.62 350.833L219.102 353.214L220.069 356.486L221.819 360.529L221.415 364.431L224.307 366.69C224.307 366.69 225.744 370.045 225.455 370.576C225.166 371.107 226.699 373.658 226.699 373.658L227.574 376.625L227.465 380.771L231.008 383.729L235.775 384.434L238.025 383.769L241.603 385.715L245.734 387.276L247.891 389.306L250.506 391.76L252.858 391.065L255.312 393.346L256.096 396.003L257.208 399.011L255.55 402.059L257.044 403.731L258.77 406.557L261.287 407.927L263.247 405.902L266.065 406.405L269.712 406.328L273.72 405.59L274.462 401.7L278.504 399.951L282.498 397.658L284.735 395.44L288.851 395.448L291.104 396.674L290.697 398.684L291.571 401.652L292.326 404.208L290.74 407.124L287.671 408.03L288.808 412.255L287.886 415.53L287.975 418.84L286.292 420.672L286.777 424.197L285.384 427.39L285.123 431.025L282.551 433.231L282.868 437.698L280.378 439.434L277.412 440.31L275.622 438.392L272.925 438.298L270.062 439.145L268.62 441.795L266.37 442.458L263.811 443.214L262.473 445.834L264.425 447.927L265.573 451.813L265.108 455.509L265.772 457.761L267.073 462.158L266.77 466.03L265.329 468.679L262.009 470.994L259.422 473.537L259.906 475.175L262.351 476.676L263.504 474.556L264.225 473.23L265.965 472.718L268.099 470.53L268.795 467.989L271.126 464.965L271.846 463.64L272.632 466.299L273.145 468.037L274.478 465.587L276.699 463.875L277.152 465.41L276.179 467.199L277.667 469.038L281.315 468.962L285.347 469.439L287.071 470.377L291.077 467.747L294.817 464.974L299.846 462.043L301.504 458.995L305.228 452.779L307.099 447.444L310.489 443.107L313.949 436.747L316.76 431.579L318.997 429.361L321.736 424.325L323.752 418.725L325.047 414.451L326.295 409.635L326.927 404.998L329.726 400.171L330.863 394.607L334.253 390.27L337.28 384.705L336.343 381.534L335.947 376.425L336.293 374.209L336.167 370.02L334.959 365.927L335.522 363.316L334.917 361.269L333.376 356.052L332.787 350.666L333.948 344.428L336.289 339.178L336.335 335.939L335.76 333.996L333.128 332.993L332.222 329.925L332.629 327.915L330.244 326.617L327.991 325.392L329.579 324.366L331.01 323.943L332.954 323.369L332.199 320.811C332.199 320.811 329.912 320.597 329.249 320.237C328.587 319.876 325.251 318.75 325.251 318.75L324.677 316.806L322.009 314.926L318.563 313.051L315.289 312.127L313.038 312.792L309.932 312.819L309.948 316.263L309.915 319.165L310.489 321.107L308.969 323.113L308.087 321.261L306.727 321.552L304.188 322.746L303.468 324.071L300.242 323.69L301.179 321.967L302.477 319.582L302.114 318.354L301.175 318.187L300.234 316.13L300.954 314.805L298.631 315.602L297.55 317.59L298.973 319.394L297.82 321.514L295.672 322.148L294.947 319.693L294.949 316.69L295.886 314.966L294.729 313.306L294.123 311.26L291.157 312.136L288.496 312.922L286.312 311.734L283.908 312.443L281.888 311.344L282.155 308.012L284.801 305.674L286.602 302.362L290.392 300.13L292.41 296.42L296.053 292.564L297.999 288.987L299.729 285.807L299.196 283.627L301.647 279.123L304.244 276.242L306.839 271.472L308.785 267.894L311.816 266.11L310.97 263.245L311.437 259.549L314.404 255.67L317.473 254.764L317.66 249.37L320.436 245.214L325.138 241.934L328.617 240.907L332.683 238.482L335.651 237.605L340.253 236.247L343.299 237.905L346.345 237.672L345.983 236.445L345.859 234.146L348.242 233.553L349.832 234.418L352.625 233.705L355.796 232.768L356.485 229.45L358.69 232.024L361.422 231.105L360.756 228.856L361.464 225.977L363.209 224.351L365.867 223.565L368.275 224.189L371.356 222.945L376.002 223.241L376.651 222.049L379.386 223.021L382.276 223.39L382.729 224.924L380.146 224.465L378.678 225.898L377.741 227.62C377.741 227.62 379.206 229.189 378.285 229.461C377.365 229.733 380.875 230.699 380.875 230.699L383.172 228.686L384.685 225.904L387.778 226.214L389.257 224.443L390.853 219.3L395.188 220.801L397.134 217.224L399.614 217.714L401.117 215.269L399.129 214.188L397.39 214.701L395.11 215.263L393.243 214.592L392.397 211.727L393.694 209.342L392.698 205.967L394.817 200.336L396.979 196.361L396.612 191.354L399.028 187.859L397.508 184.972L400.545 179.07L402.941 178.14L406.512 174.416L407.665 172.296L411.243 174.243L414.033 171.639L414.559 168.146L416.394 173.61L416.23 176.438L416.834 178.486L417.741 181.554L419.542 178.24L421.278 180.73L420.897 183.957L423.482 181.414L425.957 176.234L426.361 172.333L428.667 168.094L427.91 165.539L430.139 164.438L431.259 165.218L432.462 163.641L429.811 162.199L428.814 158.823L427.758 155.242L426.96 152.921L428.909 151.232L430.422 148.45L434.202 148.445L437.373 147.51L437.766 148.841L433.951 149.854L432.293 152.902L434.138 156.138L434.697 159.532L435.39 161.885L436.723 163.383L438.445 164.32L438.367 168.569L439.092 171.024L437.866 173.277L436.858 175.131L434.199 177.806L432.891 180.529L433.76 182.719L432.683 188.487L432.206 192.52L431.163 197.277L429.845 202.227L430.561 206.908L429.483 212.676L427.84 217.276L427.003 221.972L425.468 222.425L423.627 222.969L423.697 225.84L421.687 227.322L419.948 227.837L419.336 228.963L421.5 230.826L422.021 235.231L420.761 238.495L421.607 241.36L420.093 244.143L421.23 248.367L422.987 254.293C422.987 254.293 422.709 257.49 422.981 258.411L425.261 262.742L427.889 266.747L432.649 271.57L435.011 273.541L436.531 276.429L436.908 279.209L440.5 284.598L443.864 288.831L447.349 293.475L448.436 297.157L451.087 298.599L451.963 301.565L453.729 304.158L457.571 306.247L457.948 309.028L459.39 306.377L460.673 302.439L462.376 296.154L464.153 291.625L462.932 287.87L461.36 282.552L459.613 280.398L460.883 274.908L463.24 273.099L464.537 270.714L467.67 271.903L468.535 270.313L465.196 267.295L464.683 265.555L462.831 263.433L462.416 257.885L464.372 252.079L467.283 249.886L470.328 249.653L472.494 249.458L472.864 246.569L471.367 243.006L466.574 241.087L465.699 238.12L463.571 236.19L463.311 230.04L464.246 226.427L467.329 227.074L469.758 225.131L468.58 221.142L466.393 219.953L464.297 220.573L461.299 217.954L459.153 213.696L460.148 210.287L458.577 204.97L456.567 206.452L454.624 207.025L454.011 208.152L453.78 210.944L450.07 208.926L449.073 205.551L446.474 201.648L447.662 198.517L449.151 194.518L448.003 190.631L447.157 187.767L446.432 185.312L446.246 180.918L448.497 180.253L450.37 176.809L451.961 177.674L455.744 176.555L453.907 174.097L455.277 171.578L455.908 166.944L457.571 167.675L458.417 170.54L460.285 173.102L461.439 170.981L461.061 166.312L462.142 164.324L465.219 161.191L464.556 158.941L469.501 156.479L473.385 153.441L477.273 154.183L479.01 156.673L482.344 155.911L481.679 153.66L480.797 149.917L482.354 143.896L484.445 140.053L483.153 136.432L484.063 131.603L485.706 127.004L486.11 123.102L487.333 118.959L489.928 114.189L491.307 109.445L490.928 104.774L492.463 104.321L490.466 100.575L491.91 99.8146L494.692 101.328L498.433 98.5538L501.66 98.9367L503.173 96.1542L502.298 93.187L502.566 90.3282L499.58 90.7644L498.772 88.7796L496.905 88.106L494.757 88.7404L492.438 87.4793L491.09 88.3779L488.705 87.0805L489.715 85.225L486.727 83.7731L484.994 83.1721L483.078 81.959L481.563 82.851L479.005 83.6065L476.121 82.1226L473.883 82.4502L472.513 84.9688L470.429 84.6927L469.824 82.6493L473.314 81.2836L471.857 80.4914L469.1 80.1927L471.18 78.5775L474.611 78.8986L476.599 79.9798L480.594 77.688L481.72 74.3527L482.752 69.9335L481.755 66.558L480.818 63.3862L478.977 63.93L480.214 61.3412L478.227 60.26L474.878 59.4687L474.062 56.7069L475.035 54.9181L472.933 53.2596L474.161 52.897L475.642 53.0147L475.189 51.4803L476.072 50.3307L476.964 51.8462L477.773 53.8319L480.29 55.2011L482.735 54.8126L483.736 57.0754L487.112 56.0784L488.95 52.6996L489.037 50.1715L493.092 48.0835L495.609 49.4527L497.165 51.3289L500.451 51.9155L503.639 49.5286L508.08 47.9942L511.27 49.3875L514.337 46.5906L512.445 44.7044L513.022 43.6438L515.805 45.1575L516.029 42.5329L516.967 40.8093L514.501 41.8725L512.826 41.4769L512.546 37.8896L511.427 34.1057L510.671 35.4969L508.206 32.6109L505.956 33.2742L503.787 31.5793L507.916 31.2498L509.43 28.4673C509.43 28.4673 511.522 26.5147 510.295 26.8773C509.067 27.2398 507.08 26.1587 507.08 26.1587L510.193 23.9045L509.59 21.8579L508.66 19.4647C508.66 19.4647 510.538 17.463 510.185 17.2054L510.185 17.2053ZM429.708 0.900315L428.263 1.36214L425.675 1.31853L423.138 2.06925L421.753 4.97804L420.669 5.2981L419.78 7.76843L420.046 10.4124L419.688 14.3082L421.553 15.8906L423.753 15.2397L425.888 13.874L425.396 11.9602L428.532 10.3704L429.728 7.44321L431.516 4.15603L430.546 1.8674L429.708 0.900315ZM282.883 7.36212L281.442 8.2923L281.8 9.49903L283.127 9.20875L282.883 7.36212ZM296.513 27.8657L293.214 27.6306L290.948 28.5006L288.627 29.186L288.026 28.8592L287.637 26.8548L284.759 27.7037L282.809 28.2809L281.416 28.6923L280.07 26.8677L279.789 27.9622L279.932 29.1306L280.208 31.7741L282.303 34.0827L284.808 33.3427L286.973 34.5202L289.595 34.856L292.07 35.031L294.02 34.4561L294.935 32.7745L297.651 30.3563L296.513 27.8657ZM275.79 28.4369L273.964 28.0677L270.117 25.9746L268.168 26.5503L265.431 26.8528L264.774 24.6256L260.697 23.8107L259.761 26.1062L260.172 27.4991L260.776 29.5401L261.187 30.933L259.276 31.2956L258.321 28.7521L256.837 29.1904L256.234 27.1478L252.901 26.1134L251.97 24.6733L250.519 25.9085L250.957 27.394L248.629 27.3752L247.386 29.6594L248.046 31.8874L246.768 33.3738L248.091 34.0934L248.859 36.6946L247.33 38.3558L248.908 40.6148L251.727 42.3053L252.277 44.1618L254.44 45.3384L257.358 45.9922L258.405 44.0683L257.627 41.7737L258.926 41.3899L259.502 43.339L263.918 40.5215L267.166 39.5621L267.578 40.955L270.548 40.0776L272.131 38.6002L270.359 36.7007L268.131 37.3601L267.048 35.0565L265.601 32.5553L264.287 29.8142L265.859 28.6449L267.624 28.1237L266.858 31.6796L267.488 33.8149L269.603 35.5111L271.374 35.6957L272.576 36.3495L274.432 35.8014L275.205 32.9482L273.281 31.9017L274.94 29.999L275.79 28.4369ZM241.654 32.4614L242.231 34.4129L241.475 37.6622L243.037 38.5119L243.887 36.9498L244.006 35.3L243.512 33.629L241.654 32.4614ZM272.64 53.9913L270.385 54.5572L268.25 55.1889L266.114 55.8198L265.883 58.1089L266.486 60.1515L264.596 61.6167L264.926 62.7315L267.251 61.0345L270.344 61.938L273.273 62.2837L277.566 62.126L277.583 58.0847L275.297 56.8413L272.64 53.9913ZM266.005 51.0077L264.497 50.3426L262.89 50.7157L262.426 53.578L263.056 55.7141L265.408 54.1099L266.389 52.3071L266.005 51.0077ZM245.542 54.5233L244.493 54.7314L245.489 56.052L246.453 58.2906L247.697 57.7198L247.564 56.2471L245.542 54.5233ZM458.028 186.607L456.214 186.663L454.843 189.185L453.368 191.352L454.243 193.018L454.537 194.663L453.529 196.789L454.991 198.475L455.654 196.161L455.723 194.121L457.961 191.919L459.707 188.71L458.028 186.607ZM508.932 222.765L507.254 222.297L505.202 222.519L505.569 223.757L507.249 223.261L508.932 222.765ZM498.568 225.152L495.889 224.884L494.263 222.959L492.346 222.659L492.214 224.815L494.965 226.311L497.717 227.808L500.372 227.025L498.568 225.152ZM159.893 49.8488L158.437 49.369L155.003 50.3846L154.186 51.8861L156.05 52.8997L155.865 54.6706L157.821 54.7992L160.606 53.9779L162.177 51.0913L159.893 49.8488ZM456.213 311.755L454.403 313.444L452.722 313.94L453.297 315.887L453.2 317.841L451.848 319.779L450.299 322.353L450.848 324.211L452.571 324.183L454.068 321.432L455.928 320.884L456.23 318.004L455.5 315.526L456.736 313.524L456.213 311.755ZM451.415 332.319L450.479 334.04L451.314 335.236L452.677 334.642L451.415 332.319ZM338.611 304.537L337.675 306.257L337.301 308.579L338.344 308.849L340.13 310.824L340.824 313.172L340.356 314.032L341.061 316.42L339.355 318.464L337.155 316.227L336.22 317.947L334.17 319.802L336.818 322.581L336.803 326.434L338.161 331.036L337.225 332.755L337.919 338.036L339.857 339.388L342.486 342.748L345.783 347.069L345.953 350.576L346.605 355.388L347.913 359.814L349.481 365.124L350.541 373.277L350.247 378.465L352.166 380.401L353.824 383.086L354.933 386.512L354.833 391.063L355.264 393.823L356.257 397.187L357.302 400.725L356.118 402.902L357.811 407.983L358.699 410.993L359.191 413.639L361.836 413.146L362.082 409.416L361.247 406.584L361.92 403.98L364.115 402.127L367.039 403.718L369.075 403.117C369.075 403.117 371.359 406.291 371.933 406.603C372.507 406.916 372.68 405.229 372.68 405.229L372.198 402.291L370.344 399.278L367.956 399.983L365.497 398.496L365.649 395.756L363.701 394.696L362.917 392.042L359.936 390.42L358.673 388.1L357.628 384.559L356.949 382.258C356.949 382.258 358.233 378.797 358.766 378.64C359.298 378.484 358.584 375.423 358.584 375.423L358.257 371.381L359.005 370.007L360.4 368.537L361.25 365.88L362.97 366.816L365.523 367.313L367.292 366.79L368.561 365.549L366.038 362.542L365.013 360.053L363.083 356.776L360.693 353.246L359.357 349.696L356.643 345.399L355.15 341.316L352.792 338.549L350.925 336.791L349.445 331.454L348.635 328.711L349.173 324.992L348.858 322.295L347.139 321.36L345.052 317.55L345.362 315.341L342.808 313.208L342.076 310.73L342.27 308.459L341.155 306.961L338.611 304.537ZM443.638 371.471L442.428 370.961L441.055 373.485L439.934 375.547L441.539 376.42L442.141 374.222L442.827 372.961L443.638 371.471ZM302.478 304.046L300.05 303.321L298.218 303.958L297.346 305.562L296.41 307.282L298.795 307.54L299.266 309.134L301.035 308.611L302.742 306.566L302.478 304.046ZM433.328 388.371L430.938 389.077L429.42 390.776L429.223 393.046L427.031 395.715L428.332 396.87L430.133 395.473L431.045 392.701L432.575 390.71L433.328 388.371ZM421.848 401.961L420.964 402.222L420.362 404.422L422.029 403.544L421.848 401.961ZM415.52 405.948L413.326 408.617L413.667 409.765L411.82 411.66L410.179 415.222L411.243 416.545L412.699 414.959L414.005 410.919L415.952 410.344L417.158 407.579L415.52 405.948ZM405.145 422.291L402.665 421.387L401.815 424.044L400.796 426.461L401.527 427.304L402.524 425.47L404.023 424.353L405.145 422.291ZM409.827 427.068L409.267 428.097L410.321 429.711L411.257 427.99L409.827 427.068Z" fill="white"/>
</svg>
